<svg width="31" height="26" viewBox="0 0 31 26" fill="none" xmlns="http://www.w3.org/2000/svg">
<g clip-path="url(#clip0)">
<path d="M27.9037 12.6923C27.699 12.3944 22.7784 5.4165 14.9999 5.4165C8.3254 5.4165 2.37781 12.3543 2.12755 12.6501C1.95748 12.8516 1.95748 13.1473 2.12755 13.3499C2.37781 13.6456 8.3254 20.5834 14.9999 20.5834C21.6745 20.5834 27.622 13.6456 27.8723 13.3499C28.0294 13.1636 28.0435 12.8938 27.9037 12.6923ZM14.9999 19.5001C9.64929 19.5001 4.56184 14.3975 3.26944 13C4.55971 11.6014 9.64172 6.49989 14.9999 6.49989C21.2606 6.49989 25.6796 11.5949 26.7586 12.9707C25.5127 14.3238 20.3961 19.5001 14.9999 19.5001Z" fill="#EA3F4F"/>
<path d="M14.9994 8.6665C12.6095 8.6665 10.666 10.61 10.666 12.9999C10.666 15.3897 12.6095 17.3333 14.9994 17.3333C17.3893 17.3333 19.3328 15.3897 19.3328 12.9999C19.3328 10.61 17.3893 8.6665 14.9994 8.6665ZM14.9994 16.25C13.2076 16.25 11.7493 14.7918 11.7493 12.9999C11.7493 11.2081 13.2076 9.74989 14.9994 9.74989C16.7913 9.74989 18.2495 11.2081 18.2495 12.9999C18.2495 14.7918 16.7913 16.25 14.9994 16.25Z" fill="#EA3F4F"/>
</g>
<line x1="0.312348" y1="0.609566" x2="30.3123" y2="24.6096" stroke="#EA3F4F"/>
<defs>
<clipPath id="clip0">
<rect width="26" height="26" fill="white" transform="translate(2)"/>
</clipPath>
</defs>
</svg>
