<svg width="17" height="17" viewBox="0 0 17 17" fill="none" xmlns="http://www.w3.org/2000/svg">
<g clip-path="url(#clip0)">
<path d="M16.9714 7.87198C16.9812 7.84539 16.9869 7.81754 16.9881 7.78915C16.9881 7.75923 16.9833 7.72945 16.974 7.70106L16.9521 7.63915C16.7205 5.40085 15.6094 3.34622 13.863 1.92734C13.7382 1.82567 13.6077 1.73384 13.4772 1.63966C13.4707 1.63425 13.4672 1.62664 13.4602 1.62151C13.4531 1.61639 13.4474 1.61694 13.4415 1.6132C11.9975 0.578128 10.2664 0.0200774 8.48979 0.0167532C8.41666 0.0167532 8.34311 0.0167532 8.2884 0.0224321C7.34073 0.0408537 6.4033 0.221192 5.51643 0.555689C4.74757 -0.0440519 3.70391 -0.152781 2.82784 0.275625C1.95178 0.704032 1.39677 1.59464 1.39816 2.56974C1.41519 2.89413 1.49054 3.2127 1.62088 3.51007C1.3314 3.90579 1.07654 4.32561 0.859221 4.7651C0.854927 4.77188 0.852434 4.77923 0.848694 4.78629C-1.16245 8.94473 0.511011 13.9483 4.61931 16.06C8.72747 18.1719 13.7703 16.6207 15.9814 12.5651C16.587 11.4494 16.9312 10.2107 16.9878 8.94265C16.9967 8.8058 16.9998 8.66632 16.9998 8.52671C16.9998 8.3069 16.9884 8.08902 16.9714 7.87198ZM16.1471 6.41626C16.1111 6.38426 16.0778 6.34728 16.0402 6.31778C15.6695 6.03633 15.2494 5.82649 14.8016 5.6992C14.3939 5.59684 13.9677 5.59241 13.5578 5.68618C13.2092 5.76513 12.8477 5.76693 12.4982 5.69144C11.8201 5.54338 11.2842 5.42661 11 4.97272C10.5929 4.32021 10.7838 3.40314 11.2133 3.08042C11.3548 2.98277 11.5295 2.94551 11.6986 2.97682C11.9995 3.00147 12.3018 2.9505 12.578 2.82875C12.8719 2.69107 13.133 2.49231 13.344 2.24549C13.3976 2.28691 13.4542 2.32416 13.5067 2.36696C14.7868 3.4091 15.7097 4.82466 16.1471 6.41626ZM3.95115 0.584083C5.04716 0.585884 5.93514 1.47386 5.9368 2.56974C5.9368 3.41824 4.66239 5.36082 3.95115 6.34562C3.27675 5.43423 2.69072 4.46052 2.20123 3.43777C2.06785 3.16616 1.98779 2.87155 1.96549 2.56974C1.96673 1.47358 2.85499 0.58533 3.95115 0.584083ZM0.547161 8.52671C0.54827 7.99816 0.601595 7.47086 0.706308 6.9527C0.736641 7.34703 0.788028 7.69787 0.834013 8.00218C1.00978 9.16523 1.17585 10.2617 2.03308 11.2643C2.39154 11.6868 2.99184 12.393 3.91998 12.4975C4.84813 12.6019 6.01035 12.068 6.3461 11.9017L6.47491 11.8368C6.65331 11.7245 6.85719 11.6592 7.06759 11.647C7.42646 11.6796 7.75888 11.8494 7.99573 12.121C8.47982 12.6569 8.60268 13.5517 8.25862 14.0357C8.14837 14.1795 7.99615 14.2853 7.82287 14.3385C7.52633 14.4377 7.27424 14.6387 7.11149 14.9058C6.87174 15.3399 6.82714 15.8553 6.98891 16.3242C3.25306 15.6003 0.552979 12.3321 0.547161 8.52671ZM8.48979 16.4693C8.21568 16.4693 7.94185 16.4552 7.66913 16.4271C7.64586 16.3973 7.62425 16.3663 7.60445 16.334C7.41275 15.9794 7.41067 15.5524 7.59904 15.196C7.7014 15.0334 7.85999 14.9142 8.04449 14.861C8.31499 14.7678 8.55101 14.5945 8.72096 14.3643C9.21433 13.6705 9.07471 12.4685 8.41749 11.7415C8.07565 11.3506 7.59198 11.1124 7.07382 11.0797H7.06122C6.76245 11.0887 6.47131 11.1754 6.21618 11.3314L6.09512 11.3926C5.47529 11.6981 4.59341 12.0002 3.983 11.9315C3.27855 11.8527 2.78934 11.2762 2.46481 10.8945C1.71243 10.0151 1.5652 9.0421 1.39511 7.91602C1.21256 6.9527 1.20535 5.96444 1.3735 4.99848C1.52545 4.69086 1.69706 4.39334 1.88751 4.10774C1.89693 4.12657 1.90731 4.14583 1.9159 4.16453C1.93405 4.20054 1.95275 4.23627 1.97255 4.27228C2.00095 4.32589 2.02934 4.37949 2.05773 4.43351C2.07726 4.4698 2.09707 4.50609 2.11729 4.54265C2.14735 4.59653 2.17768 4.65041 2.20829 4.70429C2.22879 4.74003 2.24915 4.7759 2.26993 4.81164C2.30151 4.86552 2.33309 4.91912 2.36495 4.97272C2.38586 5.0079 2.40664 5.04281 2.42783 5.07771C2.46135 5.13436 2.49514 5.18741 2.52894 5.24212C2.54819 5.27315 2.56717 5.30459 2.58559 5.3352C2.62756 5.40251 2.66925 5.46775 2.71094 5.53382C2.72202 5.55086 2.7331 5.56872 2.74391 5.58548C2.79585 5.66596 2.84737 5.74449 2.89793 5.82109C2.91718 5.84948 2.93588 5.87787 2.95472 5.90627C2.98588 5.95308 3.01704 5.9999 3.04738 6.04464L3.11469 6.14312C3.13907 6.17913 3.16373 6.21514 3.18755 6.24949L3.25556 6.34728C3.27661 6.37775 3.29766 6.40753 3.31775 6.43606C3.33783 6.46473 3.36055 6.49714 3.3816 6.52637C3.40251 6.5556 3.41678 6.57596 3.43354 6.5995L3.49019 6.67776L3.53645 6.74189L3.58161 6.80408L3.61845 6.85394L3.65308 6.90104L3.67371 6.92943C3.69906 6.96378 3.71831 6.98954 3.72372 6.99661C3.77718 7.06808 3.86125 7.11018 3.95059 7.11018C4.03993 7.11018 4.124 7.06808 4.17747 6.99661C4.41557 6.68095 6.50413 3.88086 6.50413 2.56974C6.50413 2.48691 6.49901 2.40464 6.49111 2.32292C6.48862 2.29771 6.4846 2.2725 6.48142 2.24729C6.47408 2.1905 6.46535 2.13372 6.45316 2.07707C6.44776 2.04867 6.44181 2.02208 6.43557 1.99479C6.42241 1.938 6.40718 1.88135 6.38986 1.82456C6.3828 1.80185 6.37684 1.77886 6.36937 1.75656C6.34388 1.68052 6.31521 1.60531 6.28266 1.53217C6.27643 1.51818 6.26895 1.50378 6.26244 1.49104C6.23404 1.43203 6.20579 1.37358 6.1731 1.31652C6.15897 1.29103 6.14332 1.26638 6.12808 1.24131C6.1008 1.19657 6.0724 1.15252 6.0429 1.10917C6.02531 1.08396 6.00744 1.05875 5.98902 1.03396C5.97933 1.02149 5.97115 1.0082 5.96063 0.996007C6.55081 0.797248 7.16288 0.670374 7.78354 0.618157C7.34128 1.45295 7.19682 2.22513 7.36192 2.91587C7.48505 3.37849 7.71871 3.8044 8.04282 4.15691C8.30973 4.48739 8.5017 4.72562 8.48979 5.11455C8.46541 5.93716 7.53644 6.62194 7.1849 6.88067C6.72381 7.21268 6.20842 7.46158 5.66173 7.61643C5.14647 7.78472 4.702 7.92988 4.53205 8.43709C4.36404 9.10692 4.63995 9.80971 5.21891 10.1862C5.56588 10.3736 5.97475 10.4097 6.34928 10.286C6.75954 10.1907 7.18366 10.1704 7.60112 10.2262C8.14006 10.3025 8.60475 10.368 8.82512 10.6766C8.95587 10.861 8.94909 11.0516 8.9236 11.4012C8.86543 11.8961 8.91571 12.3977 9.0707 12.8713C9.20006 13.2594 9.3955 13.8454 9.86504 13.913C9.89551 13.9179 9.9264 13.9204 9.95715 13.9204C10.2894 13.9204 10.4928 13.627 10.7066 13.3184C10.8011 13.182 10.9052 13.0347 11.03 12.887C11.6139 13.8302 12.2069 14.6173 12.2345 14.6547C12.2881 14.7262 12.3722 14.7682 12.4614 14.7682C12.5507 14.7682 12.6348 14.7262 12.6884 14.6547C13.3038 13.8306 13.8648 12.9669 14.3674 12.0695C14.7159 12.1704 15.0478 12.3217 15.3525 12.5185C13.9332 14.9651 11.3183 16.4706 8.48979 16.4693ZM13.7844 8.74998C14.2059 9.1259 14.4469 9.66386 14.4468 10.2287C14.4468 10.4327 14.3639 10.8372 13.9706 11.6053C13.5215 12.4376 13.0174 13.2388 12.4611 14.0035C12.1942 13.6316 11.7349 12.9714 11.324 12.2777C11.0949 11.8973 10.8903 11.503 10.7112 11.0967C10.5778 10.8251 10.4977 10.5305 10.4754 10.2287C10.4767 9.13254 11.365 8.24429 12.4611 8.24304C12.5225 8.24304 12.5833 8.24581 12.6438 8.25135C13.0679 8.28972 13.4682 8.4648 13.7844 8.74998ZM16.4224 8.91342C16.3736 9.9924 16.1017 11.0495 15.6237 12.0181C15.3129 11.8215 14.9779 11.6656 14.6275 11.5539C14.8466 11.1438 14.9784 10.6924 15.0141 10.2287C15.0117 9.25526 14.4583 8.36715 13.5852 7.93611L13.5674 7.92821C13.5039 7.8976 13.4395 7.86893 13.3737 7.84317C13.3286 7.82558 13.2818 7.81187 13.2355 7.79718C13.2071 7.7886 13.1816 7.77793 13.1541 7.76879C13.0809 7.74801 13.0066 7.73112 12.9318 7.71713H12.928C12.8827 7.70868 12.8367 7.70411 12.7908 7.69815C12.0614 7.59718 11.3241 7.81838 10.7707 8.30412C10.2173 8.79001 9.90244 9.49239 9.90812 10.2287C9.93014 10.6068 10.0256 10.9772 10.189 11.3189C10.348 11.681 10.5274 12.0337 10.7263 12.3754C10.549 12.5695 10.3867 12.7766 10.2405 12.995C10.1626 13.1286 10.0641 13.2492 9.9487 13.3522C9.89191 13.3436 9.78679 13.2226 9.60825 12.6918C9.47805 12.2889 9.43719 11.8623 9.48885 11.442C9.56254 11.0646 9.4901 10.6733 9.28635 10.3473C8.92415 9.84074 8.29186 9.75154 7.67661 9.66428C7.19834 9.5989 6.71217 9.62079 6.2418 9.72868C5.87891 9.79808 5.71048 9.82398 5.51782 9.70389C5.16586 9.46261 4.98996 9.03586 5.0696 8.6166C5.14537 8.38972 5.37238 8.30773 5.83555 8.15564C6.44042 7.98209 7.01052 7.70508 7.52079 7.33678C7.9341 7.03359 9.0243 6.22899 9.05712 5.13131C9.07527 4.53074 8.77484 4.16023 8.48439 3.80205C8.21596 3.51451 8.02066 3.16671 7.91484 2.78789C7.76415 2.15588 7.95086 1.41472 8.45724 0.584083H8.48979C10.0515 0.5863 11.5781 1.04781 12.8795 1.91113C12.7293 2.07859 12.5474 2.2146 12.3442 2.31142C12.1464 2.39702 11.9302 2.43082 11.7157 2.40976C11.4173 2.37292 11.1162 2.45035 10.8726 2.62653C10.2293 3.11075 9.94108 4.34556 10.5192 5.27287C10.9307 5.93009 11.6337 6.08328 12.4013 6.2506C12.8144 6.33786 13.2415 6.33606 13.6539 6.2452C13.985 6.16625 14.3301 6.16722 14.6606 6.24838C15.0325 6.35559 15.3816 6.53039 15.6904 6.76377C16.0112 7.02985 16.2544 7.37723 16.3947 7.76962C16.418 8.02018 16.4324 8.27144 16.4324 8.52671C16.4324 8.65358 16.4299 8.78198 16.4213 8.91342H16.4224Z" fill="#5F5F5F"/>
<path d="M3.95107 3.41996C4.57768 3.41996 5.08573 2.91205 5.08573 2.2853C5.08573 1.65868 4.57768 1.15063 3.95107 1.15063C3.32446 1.15063 2.81641 1.65868 2.81641 2.2853C2.81641 2.91205 3.32446 3.41996 3.95107 3.41996ZM3.95107 1.71797C4.26437 1.71797 4.5184 1.97199 4.5184 2.2853C4.5184 2.5986 4.26437 2.85263 3.95107 2.85263C3.63776 2.85263 3.38374 2.5986 3.38374 2.2853C3.38374 1.97199 3.63776 1.71797 3.95107 1.71797Z" fill="#5F5F5F"/>
<path d="M11.3262 9.94423C11.3262 10.571 11.8342 11.0789 12.4608 11.0789C13.0874 11.0789 13.5955 10.571 13.5955 9.94423C13.5955 9.31762 13.0874 8.80957 12.4608 8.80957C11.8342 8.80957 11.3262 9.31762 11.3262 9.94423ZM13.0282 9.94423C13.0282 10.2575 12.7741 10.5116 12.4608 10.5116C12.1475 10.5116 11.8935 10.2575 11.8935 9.94423C11.8935 9.63092 12.1475 9.3769 12.4608 9.3769C12.7741 9.3769 13.0282 9.63092 13.0282 9.94423Z" fill="#5F5F5F"/>
</g>
<defs>
<clipPath id="clip0">
<rect width="17" height="17" fill="white"/>
</clipPath>
</defs>
</svg>
