<svg width="22" height="22" viewBox="0 0 22 22" fill="none" xmlns="http://www.w3.org/2000/svg">
<path d="M21.1805 9.21598L19.8915 6.98324C19.806 6.83521 19.6652 6.72719 19.5001 6.68293C19.335 6.63871 19.1591 6.66183 19.011 6.74734L18.0587 7.29721C17.8635 7.16216 17.6588 7.04335 17.446 6.94143V5.84375C17.446 5.4878 17.1574 5.19922 16.8015 5.19922H14.2233C13.8674 5.19922 13.5788 5.4878 13.5788 5.84375V6.94143C13.366 7.04335 13.1613 7.16216 12.9661 7.29721C12.4043 6.98797 11.5504 6.51797 10.9835 6.20593C10.995 6.08128 11.0007 5.96105 11.0007 5.84375C11.0007 5.72645 10.995 5.60622 10.9835 5.48157L11.9212 4.94016C12.2295 4.76218 12.3351 4.36799 12.1571 4.05973L10.868 1.82699C10.7826 1.67896 10.6418 1.57094 10.4767 1.52668C10.3116 1.48242 10.1356 1.50558 9.98761 1.59109L9.03525 2.14096C8.84005 2.00591 8.63539 1.8871 8.42256 1.78518V0.644531C8.42256 0.288578 8.13398 0 7.77803 0H5.19991C4.84395 0 4.55537 0.288578 4.55537 0.644531V1.78518C4.34255 1.8871 4.13793 2.00591 3.94268 2.14096L2.99032 1.59109C2.8423 1.50563 2.6663 1.48242 2.50125 1.52668C2.33612 1.57089 2.19532 1.67892 2.10989 1.82699L0.820831 4.05973C0.642855 4.36799 0.748472 4.76218 1.05673 4.94016L1.99444 5.48157C1.98292 5.60622 1.97725 5.72645 1.97725 5.84375C1.97725 5.96105 1.98292 6.08128 1.99444 6.20593L1.05673 6.7473C0.908702 6.83276 0.800679 6.97357 0.756421 7.13866C0.712163 7.30374 0.735324 7.4797 0.820831 7.62773L2.10989 9.86047C2.19536 10.0085 2.33612 10.1165 2.50125 10.1608C2.6663 10.205 2.8423 10.1819 2.99032 10.0964L3.94268 9.54645C4.13789 9.6815 4.34251 9.80027 4.55537 9.90219C4.55537 10.5997 4.55537 11.4001 4.55537 12.0976C4.34255 12.1996 4.13793 12.3184 3.94268 12.4534L2.99032 11.9035C2.8423 11.8181 2.6663 11.7949 2.50125 11.8391C2.33612 11.8834 2.19532 11.9914 2.10989 12.1394L0.820831 14.3722C0.642855 14.6804 0.748472 15.0746 1.05673 15.2526L1.99444 15.794C1.98292 15.9187 1.97725 16.0389 1.97725 16.1562C1.97725 16.2736 1.98292 16.3938 1.99444 16.5184L1.05673 17.0598C0.908702 17.1453 0.800679 17.2861 0.756421 17.4512C0.712163 17.6162 0.735324 17.7922 0.820831 17.9402L2.10989 20.173C2.19536 20.321 2.33612 20.429 2.50125 20.4733C2.6663 20.5175 2.8423 20.4944 2.99032 20.4089L3.94268 19.859C4.13789 19.994 4.34251 20.1128 4.55537 20.2147V21.3555C4.55537 21.7114 4.84395 22 5.19991 22H7.77803C8.13398 22 8.42256 21.7114 8.42256 21.3555V20.2148C8.63543 20.1129 8.84 19.9941 9.03525 19.859L9.98761 20.4089C10.1356 20.4944 10.3116 20.5175 10.4767 20.4733C10.6418 20.4291 10.7826 20.3211 10.868 20.173L12.1571 17.9403C12.2426 17.7922 12.2657 17.6163 12.2215 17.4512C12.1773 17.2861 12.0692 17.1453 11.9212 17.0598L10.9835 16.5184C10.995 16.3938 11.0007 16.2736 11.0007 16.1562C11.0007 16.0389 10.995 15.9187 10.9835 15.7941C11.5503 15.4821 12.4043 15.012 12.9661 14.7028C13.1614 14.8378 13.3659 14.9566 13.5788 15.0585V16.1562C13.5788 16.5122 13.8674 16.8008 14.2233 16.8008H16.8015C17.1574 16.8008 17.446 16.5122 17.446 16.1562V15.0586C17.6589 14.9566 17.8634 14.8378 18.0587 14.7028L19.011 15.2527C19.1591 15.3381 19.3351 15.3612 19.5001 15.3171C19.6652 15.2729 19.806 15.1648 19.8915 15.0168L21.1805 12.784C21.266 12.636 21.2892 12.46 21.245 12.2949C21.2007 12.1298 21.0927 11.9891 20.9446 11.9036L20.007 11.3622C20.0185 11.2376 20.0241 11.1173 20.0241 11C20.0241 10.8827 20.0185 10.7624 20.007 10.6378L20.9446 10.0964C21.2529 9.91843 21.3586 9.52424 21.1805 9.21598ZM11.0179 11.3622C10.4505 11.6745 9.59763 12.1439 9.03525 12.4535C8.84005 12.3184 8.63539 12.1996 8.42256 12.0977C8.42256 11.4002 8.42256 10.5998 8.42256 9.90228C8.63543 9.80036 8.84 9.68155 9.03525 9.5465C9.58809 9.8508 10.4581 10.3296 11.0179 10.6378C11.0064 10.7624 11.0007 10.8827 11.0007 11C11.0007 11.1173 11.0064 11.2375 11.0179 11.3622ZM4.41156 8.28279C4.20398 8.10563 3.90723 8.07851 3.67091 8.21489L2.90391 8.65777L2.25938 7.54145L3.01503 7.10518C3.2514 6.96871 3.37618 6.69814 3.32655 6.42971C3.28548 6.20744 3.26631 6.02121 3.26631 5.84375C3.26631 5.66629 3.28548 5.48011 3.3266 5.25779C3.37627 4.9894 3.25149 4.71883 3.01507 4.58236L2.25943 4.1461L2.90396 3.02973L3.67095 3.47261C3.90728 3.60903 4.20398 3.58183 4.4116 3.40471C4.71255 3.14793 5.05063 2.95161 5.41638 2.8212C5.67308 2.72968 5.84448 2.4866 5.84448 2.21409V1.28906H7.13354V2.21409C7.13354 2.4866 7.30494 2.72968 7.5616 2.8212C7.92739 2.95161 8.26543 3.14793 8.56638 3.40471C8.774 3.58188 9.0707 3.60899 9.30703 3.47261L10.074 3.02973L10.7186 4.1461L9.96291 4.58236C9.72653 4.71883 9.60175 4.9894 9.65138 5.25779C9.69246 5.48011 9.71162 5.66629 9.71162 5.84375C9.71162 6.02121 9.69246 6.20744 9.65134 6.42971C9.60167 6.69814 9.72649 6.96867 9.96286 7.10518L10.7185 7.54145L10.074 8.65777L9.30699 8.21489C9.07057 8.07843 8.77392 8.10563 8.56634 8.28279C8.26538 8.53961 7.9273 8.73593 7.5616 8.8663C7.30486 8.95778 7.1335 9.2009 7.1335 9.47341V10.3555H5.84444V9.47332C5.84444 9.20081 5.67303 8.9577 5.41634 8.86621C5.0505 8.7358 4.71247 8.53952 4.41156 8.28279ZM9.65134 15.5703C9.69246 15.7926 9.71162 15.9788 9.71162 16.1562C9.71162 16.3337 9.69246 16.5199 9.65134 16.7422C9.60167 17.0106 9.72649 17.2812 9.96286 17.4177L10.7185 17.8539L10.074 18.9703L9.30699 18.5274C9.07057 18.3909 8.77392 18.4181 8.56634 18.5953C8.26538 18.8521 7.9273 19.0484 7.5616 19.1788C7.30486 19.2703 7.1335 19.5134 7.1335 19.7859V20.7109H5.84444V19.7858C5.84444 19.5133 5.67303 19.2702 5.41634 19.1787C5.0505 19.0483 4.71247 18.852 4.4116 18.5953C4.20402 18.4181 3.90728 18.391 3.67095 18.5274L2.90396 18.9703L2.25943 17.8539L3.01507 17.4177C3.25144 17.2812 3.37623 17.0106 3.3266 16.7422C3.28548 16.5199 3.26631 16.3337 3.26631 16.1562C3.26631 15.9788 3.28548 15.7926 3.3266 15.5703C3.37627 15.3019 3.25149 15.0313 3.01507 14.8949L2.25943 14.4586L2.90396 13.3422L3.67095 13.7851C3.90728 13.9215 4.20398 13.8943 4.4116 13.7172C4.71255 13.4604 5.05063 13.2641 5.41638 13.1337C5.67308 13.0422 5.84448 12.7991 5.84448 12.5266V11.6445H7.13354V12.5266C7.13354 12.7991 7.30494 13.0422 7.5616 13.1337C7.92739 13.2641 8.26543 13.4604 8.56638 13.7172C8.774 13.8944 9.0707 13.9215 9.30703 13.7851L10.074 13.3422L10.7186 14.4586L9.96291 14.8949C9.72645 15.0313 9.60167 15.3019 9.65134 15.5703ZM18.6748 10.4141C18.7159 10.6362 18.7351 10.8224 18.7351 11C18.7351 11.1776 18.7159 11.3638 18.6748 11.5859C18.6251 11.8543 18.7499 12.1249 18.9863 12.2614L19.7419 12.6977L19.0974 13.814L18.3305 13.3711C18.0941 13.2346 17.7974 13.2618 17.5898 13.439C17.2888 13.6958 16.9508 13.8921 16.585 14.0225C16.3283 14.114 16.1569 14.3571 16.1569 14.6296V15.5117H14.8679V14.6296C14.8679 14.3571 14.6965 14.1139 14.4398 14.0225C14.0739 13.8921 13.7359 13.6957 13.435 13.439C13.2274 13.2618 12.9307 13.2347 12.6944 13.3711L11.858 13.8541L11.2135 12.7377L12.0385 12.2614C12.2749 12.1249 12.3997 11.8543 12.35 11.586C12.3089 11.3637 12.2897 11.1775 12.2897 11C12.2897 10.8225 12.3089 10.6364 12.35 10.414C12.3997 10.1457 12.2749 9.87508 12.0385 9.73861L11.2135 9.26226L11.858 8.14593L12.6944 8.62886C12.9307 8.76528 13.2274 8.73808 13.435 8.56096C13.7359 8.30418 14.074 8.10786 14.4398 7.97745C14.6965 7.88593 14.8679 7.64285 14.8679 7.37034V6.48828H16.1569V7.37034C16.1569 7.64285 16.3283 7.88593 16.585 7.97745C16.9508 8.10786 17.2889 8.30418 17.5898 8.56096C17.7974 8.73812 18.0941 8.76528 18.3305 8.62886L19.0974 8.18598L19.7419 9.30235L18.9863 9.73861C18.7499 9.87508 18.6251 10.1457 18.6748 10.4141Z" fill="#5F5F5F"/>
<path d="M6.30052 7.58856L8.87864 5.01044C9.13035 4.75872 9.13035 4.35065 8.87864 4.09894C8.62697 3.84723 8.21886 3.84723 7.96715 4.09894L5.84475 6.22134L5.01141 5.38805C4.75974 5.13633 4.35163 5.13633 4.09992 5.38805C3.84821 5.63976 3.84821 6.04783 4.09992 6.29954L5.38898 7.5886C5.51483 7.71446 5.67979 7.77737 5.84475 7.77737C6.0097 7.77737 6.17466 7.71446 6.30052 7.58856Z" fill="#5F5F5F"/>
<path d="M7.96715 14.4115L5.84475 16.5338L5.01141 15.7005C4.75974 15.4488 4.35163 15.4488 4.09992 15.7005C3.84821 15.9522 3.84821 16.3603 4.09992 16.612L5.38898 17.9011C5.51483 18.0269 5.67979 18.0899 5.84475 18.0899C6.00971 18.0899 6.17466 18.0269 6.30048 17.9011L8.8786 15.3229C9.13031 15.0712 9.13031 14.6631 8.8786 14.4114C8.62693 14.1597 8.21881 14.1597 7.96715 14.4115Z" fill="#5F5F5F"/>
<path d="M16.9906 9.25523L14.8682 11.3776L14.0348 10.5443C13.7832 10.2926 13.3751 10.2926 13.1234 10.5443C12.8716 10.796 12.8716 11.2041 13.1234 11.4558L14.4124 12.7448C14.5383 12.8707 14.7032 12.9336 14.8682 12.9336C15.0331 12.9336 15.1981 12.8707 15.3239 12.7448L17.902 10.1667C18.1537 9.91497 18.1537 9.5069 17.902 9.25518C17.6504 9.00347 17.2423 9.00347 16.9906 9.25523Z" fill="#5F5F5F"/>
</svg>
