<svg width="23" height="23" viewBox="0 0 23 23" fill="none" xmlns="http://www.w3.org/2000/svg">
<g clip-path="url(#clip0)">
<path d="M11.4989 16.3333C9.26979 16.3333 7.04358 14.8153 4.88158 11.8225C4.76083 11.6548 4.76083 11.4286 4.88158 11.2609C7.04358 8.268 9.26979 6.75 11.4989 6.75C13.728 6.75 15.9542 8.268 18.1162 11.2609C18.2369 11.4286 18.2369 11.6548 18.1162 11.8225C15.9542 14.8153 13.728 16.3333 11.4989 16.3333ZM5.86483 11.5417C9.66941 16.6295 13.3293 16.6295 17.1339 11.5417C13.3283 6.45292 9.66845 6.45483 5.86483 11.5417Z" fill="#5F5F5F"/>
<path d="M11.4987 13.4583C10.4417 13.4583 9.58203 12.5987 9.58203 11.5417C9.58203 10.4846 10.4417 9.625 11.4987 9.625C12.5557 9.625 13.4154 10.4846 13.4154 11.5417C13.4154 12.5987 12.5557 13.4583 11.4987 13.4583ZM11.4987 10.5833C10.9707 10.5833 10.5404 11.0127 10.5404 11.5417C10.5404 12.0707 10.9707 12.5 11.4987 12.5C12.0267 12.5 12.457 12.0707 12.457 11.5417C12.457 11.0127 12.0267 10.5833 11.4987 10.5833Z" fill="#5F5F5F"/>
<path d="M11.4987 22.0833C11.2342 22.0833 11.0195 21.8687 11.0195 21.6042C11.0195 21.3397 11.2342 21.125 11.4987 21.125C16.7829 21.125 21.082 16.8259 21.082 11.5417C21.082 11.2772 21.2967 11.0625 21.5612 11.0625C21.8257 11.0625 22.0404 11.2772 22.0404 11.5417C22.0404 17.354 17.311 22.0833 11.4987 22.0833Z" fill="#5F5F5F"/>
<path d="M20.9968 8.71458C20.7984 8.71458 20.6125 8.59 20.5435 8.39258C19.2114 4.54392 15.5765 1.95833 11.4997 1.95833C9.31857 1.95833 7.2754 2.67421 5.58969 4.02737C5.38269 4.19221 5.08177 4.16058 4.91598 3.95454C4.75019 3.74754 4.78373 3.44662 4.98977 3.28083C6.84702 1.78871 9.09815 1 11.4997 1C15.9847 1 19.9839 3.84529 21.4501 8.07825C21.5364 8.32933 21.4041 8.6015 21.154 8.68871C21.1022 8.70596 21.0486 8.71458 20.9968 8.71458Z" fill="#5F5F5F"/>
<path d="M8.14453 21.4987C8.09182 21.4987 8.03816 21.4901 7.98545 21.4719C3.7822 19.998 0.957031 16.0075 0.957031 11.5416C0.957031 9.41412 1.58953 7.37191 2.78553 5.63541C2.93503 5.41595 3.23307 5.36324 3.45157 5.51178C3.67007 5.66224 3.7247 5.96028 3.57424 6.17783C2.48941 7.75524 1.91536 9.60962 1.91536 11.5416C1.91536 15.6011 4.48274 19.2284 8.30361 20.5672C8.55278 20.6544 8.68407 20.9275 8.59686 21.1777C8.52786 21.3751 8.34291 21.4987 8.14453 21.4987Z" fill="#5F5F5F"/>
<path d="M12.9371 23.9999C12.8144 23.9999 12.6918 23.953 12.5978 23.86L10.6812 21.9433C10.4943 21.7565 10.4943 21.4527 10.6812 21.2658L12.5978 19.3491C12.7847 19.1623 13.0885 19.1623 13.2754 19.3491C13.4623 19.536 13.4623 19.8398 13.2754 20.0267L11.698 21.6041L13.2754 23.1815C13.4623 23.3684 13.4623 23.6722 13.2754 23.859C13.1824 23.953 13.0598 23.9999 12.9371 23.9999Z" fill="#5F5F5F"/>
<path d="M4.00007 8.66666C3.78828 8.66666 3.5947 8.52579 3.5372 8.31208L2.91715 5.99771L0.602779 6.61775C0.348821 6.68196 0.0843205 6.53437 0.0162788 6.2785C-0.0517629 6.02263 0.0996538 5.761 0.355529 5.692L3.13278 4.94833C3.38961 4.88413 3.65124 5.03171 3.71928 5.28663L4.46295 8.06291C4.53195 8.31975 4.37957 8.58137 4.12465 8.65037C4.08249 8.66091 4.04128 8.66666 4.00007 8.66666Z" fill="#5F5F5F"/>
<path d="M21.0842 9.23978C21.0027 9.23978 20.9203 9.21965 20.8446 9.17557L18.3548 7.73807C18.1258 7.60582 18.0472 7.31353 18.1795 7.08353C18.3117 6.85353 18.605 6.77495 18.834 6.90815L20.9088 8.10607L22.1067 6.03128C22.2389 5.80224 22.5322 5.7227 22.7612 5.8559C22.9903 5.98815 23.0689 6.28045 22.9366 6.51045L21.4991 9.0002C21.41 9.15353 21.249 9.23978 21.0842 9.23978Z" fill="#5F5F5F"/>
</g>
<defs>
<clipPath id="clip0">
<rect width="23" height="23" fill="white"/>
</clipPath>
</defs>
</svg>
