<svg width="26" height="32" viewBox="0 0 26 32" fill="none" xmlns="http://www.w3.org/2000/svg">
<path d="M25.3675 15.0766C24.9461 14.6553 24.4347 14.4448 23.8326 14.4448H23.1108V10.1111C23.1108 7.34262 22.118 4.96549 20.1318 2.97934C18.1457 0.993114 15.7688 0 12.9999 0C10.2311 0 7.85368 0.993114 5.86777 2.97926C3.88155 4.96549 2.88875 7.34254 2.88875 10.1111V14.4448H2.16662C1.56497 14.4448 1.05327 14.6553 0.631931 15.0766C0.210591 15.4976 0 16.0093 0 16.6115V29.6116C0 30.2132 0.21067 30.7251 0.631931 31.1465C1.05327 31.5675 1.56497 31.7782 2.16662 31.7782H23.8331C24.4353 31.7782 24.9466 31.5677 25.3681 31.1465C25.789 30.7251 26 30.2132 26 29.6116V16.6113C26.0003 16.0096 25.789 15.498 25.3675 15.0766ZM18.7776 14.4448H7.22215V10.1111C7.22215 8.51629 7.78649 7.15448 8.91494 6.02619C10.0435 4.89774 11.4051 4.33364 13.0001 4.33364C14.5953 4.33364 15.9565 4.89766 17.0852 6.02619C18.2134 7.1544 18.7776 8.51629 18.7776 10.1111V14.4448Z" fill="#5F5F5F"/>
</svg>
