<svg width="31" height="27" viewBox="0 0 31 27" fill="none" xmlns="http://www.w3.org/2000/svg">
<line x1="0.312348" y1="2.60957" x2="30.3123" y2="26.6096" stroke="#EA3F4F"/>
<path d="M23.4554 13.7422C23.2464 13.7422 23.077 13.9116 23.077 14.1206C23.077 14.3855 22.8615 14.601 22.5966 14.601C22.3317 14.601 22.1161 14.3855 22.1161 14.1206C22.1161 13.9115 21.9467 13.7422 21.7377 13.7422C21.5288 13.7422 21.3594 13.9116 21.3594 14.1206C21.3594 14.8028 21.9144 15.3577 22.5966 15.3577C23.2787 15.3577 23.8337 14.8027 23.8337 14.1206C23.8337 13.9115 23.6643 13.7422 23.4554 13.7422Z" fill="#EA3F4F"/>
<path d="M27.0069 13.8039L25.9419 13.4627C25.8055 13.419 25.698 13.3101 25.6544 13.1715C25.43 12.4578 25.0912 11.7879 24.6477 11.1801C24.4455 10.9031 24.2207 10.6386 23.9751 10.3868C24.1322 9.69751 24.2177 8.91746 24.2066 8.24354C24.1907 7.27946 23.9981 6.71401 23.6176 6.51475C23.4127 6.40729 22.7891 6.08087 19.4139 7.62594C19.3339 7.6625 19.2593 7.70755 19.1902 7.75914C18.9626 7.698 18.73 7.64143 18.496 7.59065C18.4679 7.5845 18.4388 7.57907 18.4104 7.57308C18.6839 6.97559 18.8436 6.32665 18.8736 5.65675C18.883 5.44793 18.7214 5.27111 18.5125 5.26182C18.3043 5.25146 18.1269 5.41406 18.1176 5.62288C18.0683 6.72437 17.6114 7.76077 16.8311 8.54112C16.3648 9.00734 15.8189 9.346 15.2371 9.55929C14.2282 9.41771 13.2005 9.41771 12.1915 9.55929C11.6096 9.346 11.0638 9.00734 10.5976 8.54112C9.76506 7.70861 9.30656 6.60174 9.30656 5.42437C9.30656 4.24696 9.76506 3.14013 10.5976 2.30762C11.4301 1.47506 12.537 1.01656 13.7143 1.01656C14.8916 1.01656 15.9986 1.47506 16.8311 2.30762C17.1656 2.64217 17.4421 3.02394 17.6528 3.44223C17.7468 3.6289 17.9743 3.70405 18.1609 3.61001C18.3476 3.51606 18.4227 3.28851 18.3287 3.10189C18.0818 2.61139 17.7579 2.16416 17.3663 1.77244C16.3908 0.796981 15.0938 0.259766 13.7144 0.259766C12.3349 0.259766 11.0379 0.796981 10.0625 1.77244C9.08703 2.74795 8.54982 4.04485 8.54982 5.42432C8.54982 6.80379 9.08703 8.10075 10.0625 9.0762C10.3439 9.35758 10.65 9.59956 10.9738 9.80227C10.9739 9.80227 10.974 9.80222 10.9741 9.80222C10.7388 9.86336 10.5053 9.93202 10.2744 10.0092C10.0762 10.0755 9.96925 10.2898 10.0355 10.4881C10.1017 10.6863 10.3162 10.7932 10.5143 10.727C12.5779 10.0371 14.8509 10.0371 16.9144 10.727C16.9542 10.7403 16.9946 10.7466 17.0344 10.7466C17.1927 10.7466 17.3403 10.6465 17.3932 10.4881C17.4595 10.2899 17.3525 10.0755 17.1543 10.0092C16.9234 9.93202 16.6899 9.86331 16.4547 9.80222C16.4548 9.80222 16.4549 9.80227 16.455 9.80227C16.7788 9.59956 17.0849 9.35758 17.3663 9.0762C17.6152 8.82727 17.8349 8.55544 18.0257 8.26655C18.13 8.28681 18.2335 8.30803 18.3356 8.33018C18.4715 8.35968 18.6067 8.39137 18.7408 8.42463C18.7366 8.44108 18.7323 8.45749 18.7288 8.47419C18.5442 9.34991 18.5562 10.1244 18.7644 10.7761C18.9514 11.3619 19.2891 11.8364 19.7678 12.1867C20.332 12.5994 21.0132 12.7777 21.6303 12.7777C22.0946 12.7777 22.5228 12.6766 22.8372 12.4986C23.1929 12.2971 23.4909 11.8726 23.7268 11.2353C23.8358 11.3626 23.9391 11.4929 24.0365 11.6264C24.4314 12.1674 24.7329 12.7637 24.9326 13.3986C25.0499 13.7714 25.3409 14.0649 25.7112 14.1835L26.7762 14.5247C27.0556 14.6142 27.2434 14.8714 27.2434 15.1648V16.9307C27.2434 17.2242 27.0556 17.4814 26.7762 17.5709L25.0603 18.1205C24.7858 18.2085 24.5535 18.3972 24.4062 18.6518C23.732 19.8168 22.6722 20.7809 21.2558 21.5173C21.0922 21.6024 20.9789 21.7547 20.9448 21.9352L20.3952 24.8451C20.38 24.9253 20.3098 24.9834 20.2282 24.9834H18.4413C18.3597 24.9834 18.2895 24.9252 18.2743 24.8451L17.9699 23.2369C17.91 22.9205 17.6133 22.7103 17.2938 22.7587C16.5241 22.8751 15.731 22.9341 14.9367 22.9341C14.3457 22.9341 13.7623 22.9011 13.2025 22.836C12.893 22.8004 12.6046 23.0114 12.5468 23.317L12.2576 24.8451C12.2424 24.9253 12.1721 24.9834 12.0905 24.9834H10.3037C10.2221 24.9834 10.1519 24.9252 10.1365 24.8439L9.60734 22.0955C9.57326 21.9184 9.46205 21.7679 9.30204 21.6824C6.8877 20.3935 5.61156 18.2402 5.61156 15.4553C5.61156 14.0483 5.9194 12.8041 6.52649 11.7572C7.093 10.7802 7.92043 9.97244 8.98577 9.35621C9.16666 9.25155 9.22846 9.02009 9.12385 8.83916C9.01924 8.65827 8.78778 8.59657 8.60684 8.70108C6.54111 9.89607 5.2952 11.7396 4.95217 14.0812V14.0811C4.91576 14.0778 4.8793 14.0747 4.84299 14.0709C4.84959 13.8183 4.80389 13.5633 4.70436 13.3159C4.48483 12.7702 4.03389 12.3764 3.55548 12.3125C3.17848 12.2621 2.81971 12.4221 2.57073 12.7511C2.20973 13.2281 2.26858 13.6056 2.38147 13.8383C2.57205 14.231 3.06194 14.5088 3.87489 14.6834C3.85255 14.7169 3.82797 14.7505 3.80106 14.7843C3.32072 15.3867 2.75481 15.5199 2.38736 15.5324C2.17225 15.5397 2 15.7124 2 15.9277V15.9295C2 16.1418 2.16753 16.315 2.37964 16.3247C2.40681 16.3259 2.4352 16.3266 2.46475 16.3266C2.9297 16.3266 3.67593 16.1551 4.39286 15.2561C4.50605 15.1142 4.59827 14.9645 4.66916 14.8099C4.74056 14.8179 4.80917 14.8248 4.87488 14.8309C4.87488 14.8308 4.87488 14.8307 4.87493 14.8305C4.86203 15.0356 4.85487 15.2436 4.85487 15.4553C4.85487 17.031 5.2305 18.4358 5.97125 19.6311C6.65425 20.733 7.63215 21.6353 8.87873 22.3139L9.39314 24.9858C9.47586 25.4229 9.8588 25.7402 10.3037 25.7402H12.0905C12.5354 25.7402 12.9184 25.4229 13.0011 24.9858L13.2626 23.6041C13.8058 23.6616 14.3681 23.6908 14.9366 23.6908C15.7166 23.6908 16.4957 23.6365 17.255 23.5292L17.5307 24.9859C17.6135 25.423 17.9964 25.7402 18.4412 25.7402H20.2281C20.673 25.7402 21.0559 25.4229 21.1387 24.9857L21.6738 22.1525C23.1854 21.3532 24.3249 20.3031 25.0611 19.0308C25.1142 18.939 25.1959 18.8718 25.2911 18.8412L27.0069 18.2916C27.6009 18.1013 28 17.5544 28 16.9306V15.1647C28 14.541 27.6009 13.9942 27.0069 13.8039ZM23.393 9.30685C23.2474 10.5523 22.8567 11.6177 22.4642 11.84C22.018 12.0928 20.9879 12.1416 20.2145 11.5758C19.4402 11.0094 19.1825 9.99082 19.4692 8.63019C19.4692 8.63014 19.4692 8.63014 19.4692 8.63014C19.4979 8.49349 19.595 8.37527 19.7289 8.31403C21.6232 7.44689 22.7153 7.16327 23.1211 7.16327C23.1823 7.16327 23.2279 7.16972 23.2583 7.18161C23.3802 7.3115 23.54 8.04991 23.393 9.30685ZM3.06239 13.5079C3.02324 13.4271 3.11566 13.2852 3.17427 13.2077C3.26714 13.085 3.35271 13.0599 3.41736 13.0599C3.43102 13.0599 3.44376 13.0611 3.45544 13.0626C3.62942 13.0858 3.87317 13.2773 4.0023 13.5983C4.03272 13.6738 4.07223 13.799 4.08147 13.9551C3.55766 13.8466 3.1507 13.6901 3.06239 13.5079Z" fill="#EA3F4F"/>
<path d="M14.0818 4.99076V3.63673C14.5488 3.67009 14.7222 3.88352 14.8823 3.88352C15.0824 3.88352 15.1758 3.63007 15.1758 3.50332C15.1758 3.17645 14.5354 3.03639 14.0818 3.02304V2.84286C14.0818 2.76283 13.9817 2.68945 13.8817 2.68945C13.7683 2.68945 13.6882 2.76283 13.6882 2.84286V3.03629C13.0545 3.10302 12.4208 3.43655 12.4208 4.27703C12.4208 5.13086 13.0879 5.37101 13.6882 5.58444V7.15201C13.0078 7.09864 12.8277 6.6317 12.6076 6.6317C12.4408 6.6317 12.3008 6.85184 12.3008 7.01195C12.3008 7.33878 12.8611 7.78571 13.6882 7.79906V8.00584C13.6882 8.08587 13.7683 8.15925 13.8817 8.15925C13.9818 8.15925 14.0818 8.08587 14.0818 8.00584V7.77905C14.8023 7.67896 15.2959 7.22539 15.2959 6.40491C15.2959 5.49776 14.6622 5.20419 14.0818 4.99076ZM13.7282 4.86406C13.3747 4.73066 13.0879 4.5906 13.0879 4.2104C13.0879 3.86352 13.3547 3.69675 13.7282 3.65008V4.86406ZM14.0418 7.13865V5.7312C14.3686 5.87125 14.6287 6.05803 14.6287 6.47824C14.6287 6.85854 14.402 7.07198 14.0418 7.13865Z" fill="#EA3F4F"/>
</svg>
