<svg width="18" height="18" viewBox="0 0 18 18" fill="none" xmlns="http://www.w3.org/2000/svg">
<g clip-path="url(#clip0)">
<path d="M9.74894 9.00006H8.24894C7.88819 9.00006 7.49894 8.72331 7.49894 8.11506V7.12506C7.49894 6.68556 7.30919 6.28356 6.99194 6.05031C6.11444 5.40381 5.60294 4.37106 5.62469 3.28806C5.65919 1.50231 7.14944 0.0263093 8.94869 5.9301e-05C9.89369 -0.0119407 10.7269 0.332309 11.3764 0.973559C12.0192 1.60806 12.3739 2.45406 12.3739 3.35481C12.3739 4.40556 11.8677 5.40981 11.0187 6.04056C10.6939 6.28281 10.4989 6.69006 10.4989 7.13031V8.25006C10.4989 8.66406 10.1629 9.00006 9.74894 9.00006ZM8.99744 0.750059C8.98469 0.750059 8.97269 0.750059 8.95919 0.750059C7.58444 0.770309 6.40019 1.93956 6.37469 3.30306C6.35819 4.14306 6.75494 4.94406 7.43669 5.44581C7.94519 5.82006 8.24894 6.44781 8.24894 7.12506V8.11506C8.24894 8.22681 8.27594 8.26356 8.27594 8.26356L9.74894 8.25006V7.13031C9.74894 6.45456 10.0564 5.82231 10.5717 5.43831C11.2399 4.94181 11.6239 4.18206 11.6239 3.35481C11.6239 2.65581 11.3487 1.99956 10.8492 1.50756C10.3534 1.01781 9.69719 0.750059 8.99744 0.750059Z" fill="#5F5F5F"/>
<path d="M10.125 7.5H7.875C7.668 7.5 7.5 7.332 7.5 7.125C7.5 6.918 7.668 6.75 7.875 6.75H10.125C10.332 6.75 10.5 6.918 10.5 7.125C10.5 7.332 10.332 7.5 10.125 7.5Z" fill="#5F5F5F"/>
<path d="M4.125 12.75C2.8845 12.75 1.875 11.7405 1.875 10.5C1.875 9.2595 2.8845 8.25 4.125 8.25C5.3655 8.25 6.375 9.2595 6.375 10.5C6.375 11.7405 5.3655 12.75 4.125 12.75ZM4.125 9C3.29775 9 2.625 9.67275 2.625 10.5C2.625 11.3272 3.29775 12 4.125 12C4.95225 12 5.625 11.3272 5.625 10.5C5.625 9.67275 4.95225 9 4.125 9Z" fill="#5F5F5F"/>
<path d="M7.875 18C7.668 18 7.5 17.832 7.5 17.625V16.125C7.5 15.5047 6.99525 15 6.375 15H1.875C1.25475 15 0.75 15.5047 0.75 16.125V17.625C0.75 17.832 0.582 18 0.375 18C0.168 18 0 17.832 0 17.625V16.125C0 15.0907 0.84075 14.25 1.875 14.25H6.375C7.40925 14.25 8.25 15.0907 8.25 16.125V17.625C8.25 17.832 8.082 18 7.875 18Z" fill="#5F5F5F"/>
<path d="M13.875 12.75C12.6345 12.75 11.625 11.7405 11.625 10.5C11.625 9.2595 12.6345 8.25 13.875 8.25C15.1155 8.25 16.125 9.2595 16.125 10.5C16.125 11.7405 15.1155 12.75 13.875 12.75ZM13.875 9C13.0478 9 12.375 9.67275 12.375 10.5C12.375 11.3272 13.0478 12 13.875 12C14.7023 12 15.375 11.3272 15.375 10.5C15.375 9.67275 14.7023 9 13.875 9Z" fill="#5F5F5F"/>
<path d="M17.625 18C17.418 18 17.25 17.832 17.25 17.625V16.125C17.25 15.5047 16.7453 15 16.125 15H11.625C11.0048 15 10.5 15.5047 10.5 16.125V17.625C10.5 17.832 10.332 18 10.125 18C9.918 18 9.75 17.832 9.75 17.625V16.125C9.75 15.0907 10.5908 14.25 11.625 14.25H16.125C17.1593 14.25 18 15.0907 18 16.125V17.625C18 17.832 17.832 18 17.625 18Z" fill="#5F5F5F"/>
</g>
<defs>
<clipPath id="clip0">
<rect width="18" height="18" fill="white"/>
</clipPath>
</defs>
</svg>
