<svg width="26" height="26" viewBox="0 0 26 26" fill="none" xmlns="http://www.w3.org/2000/svg">
<path d="M21.4554 13.7422C21.2464 13.7422 21.077 13.9116 21.077 14.1206C21.077 14.3855 20.8615 14.601 20.5966 14.601C20.3317 14.601 20.1161 14.3855 20.1161 14.1206C20.1161 13.9115 19.9467 13.7422 19.7377 13.7422C19.5288 13.7422 19.3594 13.9116 19.3594 14.1206C19.3594 14.8028 19.9144 15.3577 20.5966 15.3577C21.2787 15.3577 21.8337 14.8027 21.8337 14.1206C21.8337 13.9115 21.6643 13.7422 21.4554 13.7422Z" fill="#00D355"/>
<path d="M25.0069 13.8039L23.9419 13.4627C23.8055 13.419 23.698 13.3101 23.6544 13.1715C23.43 12.4578 23.0912 11.7879 22.6477 11.1801C22.4455 10.9031 22.2207 10.6386 21.9751 10.3868C22.1322 9.69751 22.2177 8.91746 22.2066 8.24354C22.1907 7.27946 21.9981 6.71401 21.6176 6.51475C21.4127 6.40729 20.7891 6.08087 17.4139 7.62594C17.3339 7.6625 17.2593 7.70755 17.1902 7.75914C16.9626 7.698 16.73 7.64143 16.496 7.59065C16.4679 7.5845 16.4388 7.57907 16.4104 7.57308C16.6839 6.97559 16.8436 6.32665 16.8736 5.65675C16.883 5.44793 16.7214 5.27111 16.5125 5.26182C16.3043 5.25146 16.1269 5.41406 16.1176 5.62288C16.0683 6.72437 15.6114 7.76077 14.8311 8.54112C14.3648 9.00734 13.8189 9.346 13.2371 9.55929C12.2282 9.41771 11.2005 9.41771 10.1915 9.55929C9.60964 9.346 9.06379 9.00734 8.59757 8.54112C7.76506 7.70861 7.30656 6.60174 7.30656 5.42437C7.30656 4.24696 7.76506 3.14013 8.59757 2.30762C9.43008 1.47506 10.537 1.01656 11.7143 1.01656C12.8916 1.01656 13.9986 1.47506 14.8311 2.30762C15.1656 2.64217 15.4421 3.02394 15.6528 3.44223C15.7468 3.6289 15.9743 3.70405 16.1609 3.61001C16.3476 3.51606 16.4227 3.28851 16.3287 3.10189C16.0818 2.61139 15.7579 2.16416 15.3663 1.77244C14.3908 0.796981 13.0938 0.259766 11.7144 0.259766C10.3349 0.259766 9.03794 0.796981 8.06249 1.77244C7.08703 2.74795 6.54982 4.04485 6.54982 5.42432C6.54982 6.80379 7.08703 8.10075 8.06249 9.0762C8.34387 9.35758 8.64998 9.59956 8.97376 9.80227C8.97386 9.80227 8.97396 9.80222 8.97406 9.80222C8.73879 9.86336 8.5053 9.93202 8.2744 10.0092C8.0762 10.0755 7.96925 10.2898 8.03552 10.4881C8.10174 10.6863 8.31619 10.7932 8.51434 10.727C10.5779 10.0371 12.8509 10.0371 14.9144 10.727C14.9542 10.7403 14.9946 10.7466 15.0344 10.7466C15.1927 10.7466 15.3403 10.6465 15.3932 10.4881C15.4595 10.2899 15.3525 10.0755 15.1543 10.0092C14.9234 9.93202 14.6899 9.86331 14.4547 9.80222C14.4548 9.80222 14.4549 9.80227 14.455 9.80227C14.7788 9.59956 15.0849 9.35758 15.3663 9.0762C15.6152 8.82727 15.8349 8.55544 16.0257 8.26655C16.13 8.28681 16.2335 8.30803 16.3356 8.33018C16.4715 8.35968 16.6067 8.39137 16.7408 8.42463C16.7366 8.44108 16.7323 8.45749 16.7288 8.47419C16.5442 9.34991 16.5562 10.1244 16.7644 10.7761C16.9514 11.3619 17.2891 11.8364 17.7678 12.1867C18.332 12.5994 19.0132 12.7777 19.6303 12.7777C20.0946 12.7777 20.5228 12.6766 20.8372 12.4986C21.1929 12.2971 21.4909 11.8726 21.7268 11.2353C21.8358 11.3626 21.9391 11.4929 22.0365 11.6264C22.4314 12.1674 22.7329 12.7637 22.9326 13.3986C23.0499 13.7714 23.3409 14.0649 23.7112 14.1835L24.7762 14.5247C25.0556 14.6142 25.2434 14.8714 25.2434 15.1648V16.9307C25.2434 17.2242 25.0556 17.4814 24.7762 17.5709L23.0603 18.1205C22.7858 18.2085 22.5535 18.3972 22.4062 18.6518C21.732 19.8168 20.6722 20.7809 19.2558 21.5173C19.0922 21.6024 18.9789 21.7547 18.9448 21.9352L18.3952 24.8451C18.38 24.9253 18.3098 24.9834 18.2282 24.9834H16.4413C16.3597 24.9834 16.2895 24.9252 16.2743 24.8451L15.9699 23.2369C15.91 22.9205 15.6133 22.7103 15.2938 22.7587C14.5241 22.8751 13.731 22.9341 12.9367 22.9341C12.3457 22.9341 11.7623 22.9011 11.2025 22.836C10.893 22.8004 10.6046 23.0114 10.5468 23.317L10.2576 24.8451C10.2424 24.9253 10.1721 24.9834 10.0905 24.9834H8.3037C8.22209 24.9834 8.15186 24.9252 8.13648 24.8439L7.60734 22.0955C7.57326 21.9184 7.46205 21.7679 7.30204 21.6824C4.8877 20.3935 3.61156 18.2402 3.61156 15.4553C3.61156 14.0483 3.9194 12.8041 4.52649 11.7572C5.093 10.7802 5.92043 9.97244 6.98577 9.35621C7.16666 9.25155 7.22846 9.02009 7.12385 8.83916C7.01924 8.65827 6.78778 8.59657 6.60684 8.70108C4.54111 9.89607 3.2952 11.7396 2.95217 14.0812V14.0811C2.91576 14.0778 2.8793 14.0747 2.84299 14.0709C2.84959 13.8183 2.80389 13.5633 2.70436 13.3159C2.48483 12.7702 2.03389 12.3764 1.55548 12.3125C1.17848 12.2621 0.819711 12.4221 0.570731 12.7511C0.209727 13.2281 0.268582 13.6056 0.381469 13.8383C0.572051 14.231 1.06194 14.5088 1.87489 14.6834C1.85255 14.7169 1.82797 14.7505 1.80106 14.7843C1.32072 15.3867 0.754812 15.5199 0.387359 15.5324C0.17225 15.5397 0 15.7124 0 15.9277V15.9295C0 16.1418 0.167527 16.315 0.379641 16.3247C0.406809 16.3259 0.435195 16.3266 0.46475 16.3266C0.929703 16.3266 1.67593 16.1551 2.39286 15.2561C2.50605 15.1142 2.59827 14.9645 2.66916 14.8099C2.74056 14.8179 2.80917 14.8248 2.87488 14.8309C2.87488 14.8308 2.87488 14.8307 2.87493 14.8305C2.86203 15.0356 2.85487 15.2436 2.85487 15.4553C2.85487 17.031 3.2305 18.4358 3.97125 19.6311C4.65425 20.733 5.63215 21.6353 6.87873 22.3139L7.39314 24.9858C7.47586 25.4229 7.8588 25.7402 8.3037 25.7402H10.0905C10.5354 25.7402 10.9184 25.4229 11.0011 24.9858L11.2626 23.6041C11.8058 23.6616 12.3681 23.6908 12.9366 23.6908C13.7166 23.6908 14.4957 23.6365 15.255 23.5292L15.5307 24.9859C15.6135 25.423 15.9964 25.7402 16.4412 25.7402H18.2281C18.673 25.7402 19.0559 25.4229 19.1387 24.9857L19.6738 22.1525C21.1854 21.3532 22.3249 20.3031 23.0611 19.0308C23.1142 18.939 23.1959 18.8718 23.2911 18.8412L25.0069 18.2916C25.6009 18.1013 26 17.5544 26 16.9306V15.1647C26 14.541 25.6009 13.9942 25.0069 13.8039ZM21.393 9.30685C21.2474 10.5523 20.8567 11.6177 20.4642 11.84C20.018 12.0928 18.9879 12.1416 18.2145 11.5758C17.4402 11.0094 17.1825 9.99082 17.4692 8.63019C17.4692 8.63014 17.4692 8.63014 17.4692 8.63014C17.4979 8.49349 17.595 8.37527 17.7289 8.31403C19.6232 7.44689 20.7153 7.16327 21.1211 7.16327C21.1823 7.16327 21.2279 7.16972 21.2583 7.18161C21.3802 7.3115 21.54 8.04991 21.393 9.30685ZM1.06239 13.5079C1.02324 13.4271 1.11566 13.2852 1.17427 13.2077C1.26714 13.085 1.35271 13.0599 1.41736 13.0599C1.43102 13.0599 1.44376 13.0611 1.45544 13.0626C1.62942 13.0858 1.87317 13.2773 2.0023 13.5983C2.03272 13.6738 2.07223 13.799 2.08147 13.9551C1.55766 13.8466 1.1507 13.6901 1.06239 13.5079Z" fill="#00D355"/>
<path d="M12.0818 4.99076V3.63673C12.5488 3.67009 12.7222 3.88352 12.8823 3.88352C13.0824 3.88352 13.1758 3.63007 13.1758 3.50332C13.1758 3.17645 12.5354 3.03639 12.0818 3.02304V2.84286C12.0818 2.76283 11.9817 2.68945 11.8817 2.68945C11.7683 2.68945 11.6882 2.76283 11.6882 2.84286V3.03629C11.0545 3.10302 10.4208 3.43655 10.4208 4.27703C10.4208 5.13086 11.0879 5.37101 11.6882 5.58444V7.15201C11.0078 7.09864 10.8277 6.6317 10.6076 6.6317C10.4408 6.6317 10.3008 6.85184 10.3008 7.01195C10.3008 7.33878 10.8611 7.78571 11.6882 7.79906V8.00584C11.6882 8.08587 11.7683 8.15925 11.8817 8.15925C11.9818 8.15925 12.0818 8.08587 12.0818 8.00584V7.77905C12.8023 7.67896 13.2959 7.22539 13.2959 6.40491C13.2959 5.49776 12.6622 5.20419 12.0818 4.99076ZM11.7282 4.86406C11.3747 4.73066 11.0879 4.5906 11.0879 4.2104C11.0879 3.86352 11.3547 3.69675 11.7282 3.65008V4.86406ZM12.0418 7.13865V5.7312C12.3686 5.87125 12.6287 6.05803 12.6287 6.47824C12.6287 6.85854 12.402 7.07198 12.0418 7.13865Z" fill="#00D355"/>
</svg>
