<svg width="18" height="18" viewBox="0 0 18 18" fill="none" xmlns="http://www.w3.org/2000/svg">
<path d="M17.4 3H4.2V0.6C4.2 0.268629 3.93137 0 3.6 0H1.8C0.806299 0.000992214 0.000992214 0.806299 0 1.8V10.8C0.000992214 11.7937 0.806299 12.599 1.8 12.6H17.4C17.7314 12.6 18 12.3314 18 12V3.6C18 3.26863 17.7314 3 17.4 3ZM1.8 0.6H3.6V3H1.8C1.13726 3 0.6 2.46274 0.6 1.8C0.6 1.13726 1.13726 0.6 1.8 0.6ZM17.4 12H1.8C1.13726 12 0.6 11.4627 0.6 10.8V3.138C0.929006 3.43526 1.3566 3.59988 1.8 3.6H17.4V12Z" fill="#5F5F5F"/>
<path d="M1.80078 4.8C1.80078 4.96569 1.9351 5.1 2.10078 5.1H4.50078C4.66647 5.1 4.80078 4.96569 4.80078 4.8C4.80078 4.63431 4.66647 4.5 4.50078 4.5H2.10078C1.9351 4.5 1.80078 4.63431 1.80078 4.8Z" fill="#5F5F5F"/>
<path d="M5.69941 5.1H5.99941C6.1651 5.1 6.29941 4.96569 6.29941 4.8C6.29941 4.63431 6.1651 4.5 5.99941 4.5H5.69941C5.53373 4.5 5.39941 4.63431 5.39941 4.8C5.39941 4.96569 5.53373 5.1 5.69941 5.1Z" fill="#5F5F5F"/>
<path d="M1.80078 6.60005C1.80078 6.76573 1.9351 6.90005 2.10078 6.90005H9.90078C10.0665 6.90005 10.2008 6.76573 10.2008 6.60005C10.2008 6.43436 10.0665 6.30005 9.90078 6.30005H2.10078C1.9351 6.30005 1.80078 6.43436 1.80078 6.60005Z" fill="#5F5F5F"/>
<path d="M2.10078 8.1H3.30078C3.46647 8.1 3.60078 7.96568 3.60078 7.8C3.60078 7.63431 3.46647 7.5 3.30078 7.5H2.10078C1.9351 7.5 1.80078 7.63431 1.80078 7.8C1.80078 7.96568 1.9351 8.1 2.10078 8.1Z" fill="#5F5F5F"/>
<path d="M4.20117 7.8C4.20117 7.96568 4.33549 8.1 4.50117 8.1H10.8012C10.9669 8.1 11.1012 7.96568 11.1012 7.8C11.1012 7.63431 10.9669 7.5 10.8012 7.5H4.50117C4.33549 7.5 4.20117 7.63431 4.20117 7.8Z" fill="#5F5F5F"/>
<path d="M10.8006 10.8H8.40059C8.2349 10.8 8.10059 10.9344 8.10059 11.1C8.10059 11.2657 8.2349 11.4 8.40059 11.4H10.8006C10.9663 11.4 11.1006 11.2657 11.1006 11.1C11.1006 10.9344 10.9663 10.8 10.8006 10.8Z" fill="#5F5F5F"/>
<path d="M7.19902 10.8H6.29902C6.13334 10.8 5.99902 10.9344 5.99902 11.1C5.99902 11.2657 6.13334 11.4 6.29902 11.4H7.19902C7.36471 11.4 7.49902 11.2657 7.49902 11.1C7.49902 10.9344 7.36471 10.8 7.19902 10.8Z" fill="#5F5F5F"/>
<path d="M10.2008 8.99995C10.2008 8.83426 10.0665 8.69995 9.90078 8.69995H2.10078C1.9351 8.69995 1.80078 8.83426 1.80078 8.99995C1.80078 9.16563 1.9351 9.29995 2.10078 9.29995H9.90078C10.0665 9.29995 10.2008 9.16563 10.2008 8.99995Z" fill="#5F5F5F"/>
<path d="M14.1006 8.10005C14.5548 8.06311 14.955 8.3966 15.0006 8.85005C14.955 9.30349 14.5548 9.63698 14.1006 9.60004C13.7935 9.60744 13.5019 9.46554 13.3182 9.21935C13.2245 9.08257 13.0377 9.04765 12.9009 9.14135C12.7641 9.23504 12.7292 9.42187 12.8229 9.55864C13.0541 9.88482 13.4061 10.105 13.8006 10.17V10.5C13.8006 10.6657 13.9349 10.8 14.1006 10.8C14.2663 10.8 14.4006 10.6657 14.4006 10.5V10.1727C15.0671 10.0787 15.5716 9.52252 15.6006 8.85005C15.5562 8.06446 14.8865 7.46172 14.1006 7.50005C13.6464 7.53698 13.2462 7.20349 13.2006 6.75005C13.2462 6.29661 13.6464 5.96311 14.1006 6.00005C14.4077 5.99265 14.6993 6.13455 14.883 6.38075C14.9767 6.51752 15.1635 6.55244 15.3003 6.45875C15.4371 6.36505 15.472 6.17822 15.3783 6.04145C15.1471 5.71527 14.7951 5.49512 14.4006 5.43005V5.10005C14.4006 4.93436 14.2663 4.80005 14.1006 4.80005C13.9349 4.80005 13.8006 4.93436 13.8006 5.10005V5.42735C13.1341 5.52144 12.6295 6.07757 12.6006 6.75005C12.645 7.53564 13.3147 8.13837 14.1006 8.10005Z" fill="#5F5F5F"/>
<path d="M16.5 14.4V14.1C16.5 13.6029 16.0971 13.2 15.6 13.2H10.8C10.6343 13.2 10.5 13.3343 10.5 13.5C10.5 13.6656 10.6343 13.8 10.8 13.8H15.6C15.7657 13.8 15.9 13.9343 15.9 14.1V14.4H10.2C9.9866 14.4006 9.78972 14.5149 9.6834 14.7H3.3C3.2961 14.7 3.2925 14.7021 3.2886 14.7024C3.25293 14.7028 3.21764 14.7098 3.1845 14.7231L0.9765 15.6429C0.853189 15.6934 0.750474 15.7839 0.6849 15.9H0.3C0.134315 15.9 0 16.0343 0 16.2C0 16.3656 0.134315 16.5 0.3 16.5H0.6846C0.749324 16.6152 0.850997 16.7052 0.9732 16.7556L3.1827 17.676C3.21979 17.6918 3.25968 17.6999 3.3 17.7H9.6834C9.78972 17.885 9.9866 17.9993 10.2 18H16.5C17.328 17.999 17.999 17.328 18 16.5V15.9C17.999 15.0719 17.328 14.4009 16.5 14.4ZM1.2042 16.1982L3 15.45V16.95L1.2 16.2021V16.2L1.2042 16.1982ZM3.6 15.3H4.2C4.2 15.4656 4.33431 15.6 4.5 15.6C4.66569 15.6 4.8 15.4656 4.8 15.3H5.4C5.4 15.4656 5.53431 15.6 5.7 15.6C5.86569 15.6 6 15.4656 6 15.3H9.6V17.1H6V16.5C6 16.3343 5.86569 16.2 5.7 16.2C5.53431 16.2 5.4 16.3343 5.4 16.5V17.1H4.8V16.5C4.8 16.3343 4.66569 16.2 4.5 16.2C4.33431 16.2 4.2 16.3343 4.2 16.5V17.1H3.6V15.3ZM17.4 16.5C17.4 16.997 16.9971 17.4 16.5 17.4H10.2V15H16.5C16.9971 15 17.4 15.4029 17.4 15.9V16.5Z" fill="#5F5F5F"/>
</svg>
