<svg width="26" height="26" viewBox="0 0 26 26" fill="none" xmlns="http://www.w3.org/2000/svg">
<g clip-path="url(#clip0)">
<path d="M15.5685 17.1766C14.9553 17.791 14.1385 18.129 13.2706 18.129C12.403 18.129 11.5861 17.791 10.973 17.1766L6.36881 12.5726C5.75469 11.9593 5.41668 11.1427 5.41668 10.2748C5.41668 9.40699 5.75469 8.59033 6.36881 7.97719C6.98195 7.36286 7.79881 7.02486 8.66664 7.02486C9.53428 7.02486 10.3511 7.36286 10.9643 7.97719L13.2706 10.2824L19.6375 3.91573C17.5574 2.14237 14.8643 1.06665 11.9166 1.06665C5.33535 1.06665 0 6.402 0 12.9831C0 19.5643 5.33535 24.8997 11.9166 24.8997C18.4977 24.8997 23.833 19.5643 23.833 12.9831C23.833 11.7514 23.6458 10.564 23.299 9.44606L15.5685 17.1766Z" fill="#4CAF50"/>
<path d="M13.2706 15.9623C12.9933 15.9623 12.716 15.8561 12.5048 15.6449L7.90078 11.0407C7.47708 10.6172 7.47708 9.93245 7.90078 9.50894C8.32429 9.08524 9.00884 9.08524 9.43254 9.50894L13.2706 13.3471L24.1506 2.46729C24.5741 2.04378 25.2587 2.04378 25.6824 2.46729C26.1059 2.89099 26.1059 3.57554 25.6824 3.99924L14.0365 15.6449C13.8255 15.8561 13.548 15.9623 13.2706 15.9623Z" fill="#2196F3"/>
</g>
<defs>
<clipPath id="clip0">
<rect width="26" height="26" fill="white"/>
</clipPath>
</defs>
</svg>
