<svg width="26" height="26" viewBox="0 0 26 26" fill="none" xmlns="http://www.w3.org/2000/svg">
<g clip-path="url(#clip0)">
<path d="M25.9037 12.6923C25.699 12.3944 20.7784 5.4165 12.9999 5.4165C6.3254 5.4165 0.377806 12.3543 0.127552 12.6501C-0.0425173 12.8516 -0.0425173 13.1473 0.127552 13.3499C0.377806 13.6456 6.3254 20.5834 12.9999 20.5834C19.6745 20.5834 25.622 13.6456 25.8723 13.3499C26.0294 13.1636 26.0435 12.8938 25.9037 12.6923ZM12.9999 19.5001C7.64929 19.5001 2.56184 14.3975 1.26944 13C2.55971 11.6014 7.64172 6.49989 12.9999 6.49989C19.2606 6.49989 23.6796 11.5949 24.7586 12.9707C23.5127 14.3238 18.3961 19.5001 12.9999 19.5001Z" fill="#00D355"/>
<path d="M12.9994 8.6665C10.6095 8.6665 8.66602 10.61 8.66602 12.9999C8.66602 15.3897 10.6095 17.3333 12.9994 17.3333C15.3893 17.3333 17.3328 15.3897 17.3328 12.9999C17.3328 10.61 15.3893 8.6665 12.9994 8.6665ZM12.9994 16.25C11.2076 16.25 9.74935 14.7918 9.74935 12.9999C9.74935 11.2081 11.2076 9.74989 12.9994 9.74989C14.7913 9.74989 16.2495 11.2081 16.2495 12.9999C16.2495 14.7918 14.7913 16.25 12.9994 16.25Z" fill="#00D355"/>
</g>
<defs>
<clipPath id="clip0">
<rect width="26" height="26" fill="white"/>
</clipPath>
</defs>
</svg>
