<svg width="54" height="54" viewBox="0 0 54 54" fill="none" xmlns="http://www.w3.org/2000/svg">
          <g clip-path="url(#clip0)">
            <path
              d="M44.2797 27.8895C44.2797 26.8095 43.4538 25.9836 42.3738 25.9836C41.2938 25.9836 40.468 26.8095 40.468 27.8895C40.468 35.3225 34.4327 41.3578 26.9997 41.3578C19.5668 41.3578 13.5315 35.3225 13.5315 27.8895C13.5315 26.8095 12.7056 25.9836 11.6256 25.9836C10.5456 25.9836 9.71973 26.8095 9.71973 27.8895C9.71973 36.7201 16.3268 44.153 25.0938 45.106V50.1883H18.1691C17.0891 50.1883 16.2633 51.0142 16.2633 52.0942C16.2633 53.1742 17.0891 54.0001 18.1691 54.0001H35.8303C36.9103 54.0001 37.7362 53.1742 37.7362 52.0942C37.7362 51.0142 36.9103 50.1883 35.8303 50.1883H28.9056V45.106C37.6727 44.153 44.2797 36.7201 44.2797 27.8895Z"
              fill="black" />
            <path
              d="M27 0C20.9401 0 16 4.76471 16 10.6094V27.8259C16 33.7341 20.9401 38.4353 27 38.4988C33.0599 38.4988 38 33.7341 38 27.8894V10.6094C38 4.76471 33.0599 0 27 0Z"
              fill="black" />
            <line x1="26.9561" y1="15" x2="26.9561" y2="27" stroke="white" stroke-width="2" stroke-linejoin="round" />
            <line x1="21" y1="21.25" x2="33" y2="21.25" stroke="white" stroke-width="2" stroke-linejoin="round" />
          </g>
          <defs>
            <clipPath id="clip0">
              <rect width="54" height="54" fill="white" />
            </clipPath>
          </defs>
        </svg>