<svg width="26" height="26" viewBox="0 0 26 26" fill="none" xmlns="http://www.w3.org/2000/svg">
<path d="M23.3733 5.44971H2.62674C1.17613 5.44971 0 6.62584 0 8.07502V17.9235C0 19.3755 1.17613 20.5517 2.62674 20.5517H23.3733C24.8253 20.5517 26 19.3755 26 17.9235V8.07502C26 6.62584 24.8239 5.44971 23.3733 5.44971ZM4.54239 10.13H3.67345V15.8784H4.54239V16.6464H2.66798V9.36208H4.54239V10.13ZM8.81315 15.6239L8.25566 14.5089C8.02669 14.0794 7.88021 13.7608 7.70671 13.4039H7.68822C7.56022 13.7608 7.40521 14.0808 7.21322 14.5089L6.70124 15.6239H5.10984L6.89323 12.5079L5.17383 9.46305H6.77377L7.31277 10.588C7.4948 10.9634 7.63275 11.2649 7.77924 11.6119H7.79772C7.94421 11.2194 8.06367 10.9435 8.21869 10.588L8.7392 9.46305H10.3292L8.59271 12.4695L10.4202 15.6239H8.81315ZM14.3183 15.6239L13.7609 14.5089C13.5319 14.0794 13.3854 13.7608 13.2119 13.4039H13.1934C13.064 13.7608 12.909 14.0808 12.717 14.5089L12.2064 15.6239H10.615L12.397 12.5079L10.679 9.46305H12.279L12.818 10.588C13 10.9634 13.1379 11.2649 13.2844 11.6119H13.3029C13.4494 11.2194 13.5674 10.9435 13.7225 10.588L14.243 9.46305H15.8344L14.0979 12.4695L15.924 15.6239H14.3183ZM19.825 15.6239L19.2661 14.5089C19.0385 14.0794 18.892 13.7608 18.7171 13.4039H18.7C18.5706 13.7608 18.4156 14.0808 18.2236 14.5089L17.7116 15.6239H16.1231L17.905 12.5079L16.1856 9.46305H17.7856L18.3246 10.588C18.508 10.9634 18.646 11.2649 18.7911 11.6119H18.8095C18.9574 11.2194 19.0755 10.9435 19.2305 10.588L19.751 9.46305H21.341L19.6045 12.4695L21.4334 15.6239H19.825ZM23.8298 16.6464H21.9653V15.8784H22.8343V10.1201H21.9653V9.35213H23.8298V16.6464Z" fill="#EA3F4F"/>
</svg>
