<svg width="18" height="18" viewBox="0 0 18 18" fill="none" xmlns="http://www.w3.org/2000/svg">
<g clip-path="url(#clip0)">
<path d="M16.3071 4.02333L15.9097 2.832C15.7584 2.37827 15.3353 2.07339 14.8571 2.07339H11.5168V0.985886C11.5168 0.442337 11.0749 0 10.5315 0H7.47263C6.92936 0 6.48729 0.442337 6.48729 0.985886V2.07339H3.14718C2.66886 2.07339 2.24575 2.37827 2.09441 2.832L1.69698 4.02333C1.60648 4.29456 1.65235 4.59489 1.81948 4.82684C1.98661 5.05879 2.25701 5.19736 2.54293 5.19736H2.95835L3.87268 16.5038C3.94066 17.3427 4.65258 18 5.49372 18H12.6959C13.5369 18 14.249 17.3427 14.3168 16.5037L15.2312 5.19736H15.4612C15.7471 5.19736 16.0175 5.05879 16.1847 4.82698C16.3518 4.59503 16.3976 4.29456 16.3071 4.02333ZM7.54198 1.05469H10.4621V2.07339H7.54198V1.05469ZM13.2656 16.4187C13.2417 16.7141 12.9915 16.9453 12.6959 16.9453H5.49372C5.19819 16.9453 4.94797 16.7141 4.92408 16.4187L4.01647 5.19736H14.1731L13.2656 16.4187ZM2.76911 4.14267L3.09499 3.16571C3.10241 3.14319 3.12342 3.12808 3.14718 3.12808H14.8571C14.8808 3.12808 14.9017 3.14319 14.9093 3.16571L15.2352 4.14267H2.76911Z" fill="#5F5F5F"/>
<path d="M11.5849 16.3813C11.5942 16.3819 11.6034 16.382 11.6128 16.382C11.8914 16.382 12.1243 16.1637 12.1389 15.8821L12.6341 6.37593C12.6492 6.08507 12.4256 5.83691 12.1349 5.82181C11.8433 5.80629 11.596 6.03013 11.5808 6.321L11.0857 15.8272C11.0706 16.1181 11.294 16.3662 11.5849 16.3813Z" fill="#5F5F5F"/>
<path d="M5.89141 15.8833C5.9068 16.1644 6.13943 16.3819 6.41752 16.3819C6.42713 16.3819 6.43702 16.3816 6.44677 16.3811C6.7375 16.3653 6.96038 16.1167 6.94459 15.8259L6.4259 6.31967C6.41011 6.0288 6.16154 5.80592 5.87068 5.82185C5.57995 5.83764 5.35707 6.08621 5.37286 6.37707L5.89141 15.8833Z" fill="#5F5F5F"/>
<path d="M9.00879 16.3819C9.30006 16.3819 9.53613 16.1459 9.53613 15.8546V6.34839C9.53613 6.05711 9.30006 5.82104 9.00879 5.82104C8.71751 5.82104 8.48145 6.05711 8.48145 6.34839V15.8546C8.48145 16.1459 8.71751 16.3819 9.00879 16.3819Z" fill="#5F5F5F"/>
</g>
<defs>
<clipPath id="clip0">
<rect width="18" height="18" fill="white"/>
</clipPath>
</defs>
</svg>
